<?xml version="1.0" encoding="utf-8"?>
<!-- Generator: Adobe Illustrator 23.0.3, SVG Export Plug-In . SVG Version: 6.00 Build 0)  -->
<svg version="1.1" id="Layer_1" xmlns="http://www.w3.org/2000/svg" xmlns:xlink="http://www.w3.org/1999/xlink" x="0px" y="0px"
	 viewBox="0 0 774.39001 135.00999" style="enable-background:new 0 0 774.39001 135.00999;" xml:space="preserve">
<style type="text/css">
	.st0{fill:#FFFFFF;}
	.st1{fill:#0068A9;}
</style>
<title>Serato DJ Pro - Colour Black</title>
<path d="M438.91013,54.35034c5.16913-8.8857,14.87878-15.01652,29.72125-15.01652c23.56036,0,34.20288,15.47234,34.20288,32.88057
	c0,17.4095-10.64252,33.0033-34.20291,33.0033c-14.85626,0-24.57465-6.18843-29.72879-15.12422l0.00754,0.07263v13.4763
	c-4.84357,0-10.27316,0.73-15.35587,0.73c-10.15042,0-21.39279-1.57652-21.39279-18.73935V55.6589H391.5928l0.0213-0.05009
	c0.29498,2.744,0.41086,5.50429,0.34686,8.26335V89.6239c0,4.72084,0.23792,10.03523,2.89886,14.01852h-24.42191
	c-0.63763-1.90393-0.92404-3.90788-0.84525-5.9142h-0.2467c-5.0752,5.79774-12.44824,7.48949-20.19193,7.48949
	c-12.08759,0-22.11533-5.79774-22.11533-18.97727c0-19.82377,23.20724-19.1075,35.41132-21.4003
	c3.26074-0.59981,6.54156-1.56777,6.54156-5.55857c0-4.23748-3.99707-5.799-7.87265-5.799
	c-7.36676,0-8.82684,3.73785-8.9433,6.40507h-22.19418v1.569c-3.00955-1.14507-6.21725-1.67847-9.43542-1.569
	c-9.41913,0-14.49435,5.55355-14.49435,18.97852v24.77628H282.1069V77.659h-45.24367
	c0.60733,7.12884,4.72083,12.1953,12.21033,12.1953c3.8681,0,8.10429-1.43879,10.04274-4.46038h22.362
	c-4.8298,13.54142-18.01685,19.82378-32.28078,19.82378c-15.99951,0-28.85349-7.52579-33.40778-21.18993l0.01378,0.20286
	c-0.70874,16.47661-16.99001,20.98707-31.89008,20.98707c-14.75607,0-30.94968-5.92045-31.31157-22.11406h22.85287
	c0.13187,2.17725,1.18362,4.19563,2.89261,5.55105c1.21465,1.09193,3.52,1.822,6.41258,1.822
	c3.15182,0,8.10432-1.21464,8.10432-4.84356c0-3.62265-2.05363-4.71333-13.18704-6.64424
	c-18.24722-3.1443-25.614-8.94956-25.614-19.70731c0-15.848,17.03886-19.94773,29.61232-19.94773
	c13.53391,0,29.85774,3.74536,30.46506,19.82377h-21.76094c-0.12155-1.9237-1.15265-3.67429-2.77617-4.71332
	c-1.51405-1.20045-3.39613-1.84138-5.32816-1.81446c-3.38348,0-7.24405,0.72253-7.24405,4.84356
	c0,1.80819,1.45258,2.65344,2.77615,3.25325c3.98329,1.69925,13.05682,2.17634,21.02339,4.84355
	c5.60365,1.77188,10.72144,4.63444,13.28101,9.71717l0.00751,0.07263c-0.07262-0.95419-0.10893-1.92299-0.10895-2.90638
	c0-18.25473,13.30226-33.11975,33.13353-33.11975c21.31264,0,32.25948,10.18048,34.97676,28.42019l-0.01376-0.29678V40.91035
	h22.97559v10.02771h0.23914c3.86685-7.5045,8.94205-11.60425,17.64618-11.60425c2.37015,0.01582,4.72803,0.34165,7.01364,0.96921
	v18.39876l0.01501,0.20286c1.28601-16.77964,17.62488-19.57082,32.20691-19.57082c22.40457,0,27.93561,6.941,29.30176,15.50113
	l0.00754,0.06512V40.91035h10.6488v-19.1075h23.93851v19.1075h12.81015L438.91013,54.35034z M259.83881,65.202
	c0.12158-5.68427-4.38783-10.39086-10.0721-10.51245c-0.1488-0.00319-0.29767-0.00314-0.44647,0.00013
	c-7.13635,0-11.24237,3.74536-12.33429,10.51232H259.83881z M368.99167,75.48267c-3.01398,1.38396-6.1842,2.39851-9.44168,3.02159
	c-5.31314,1.20838-8.0968,2.53823-8.0968,6.767c0,2.89887,3.14557,5.80525,7.50452,5.80525c5.4296,0,9.65829-3.267,10.034-9.79605
	L368.99167,75.48267z M426.10001,55.6589V77.535c0,5.80651,1.32233,8.336,7.36551,8.336c1.12201,0,2.2352-0.04258,3.35468-0.12272
	l0.02255,0.03631c-1.63995-4.33459-2.46115-8.93593-2.42178-13.57022c-0.07916-5.75191,1.22192-11.43898,3.79419-16.58429
	L426.10001,55.6589z M468.63141,56.74331c-9.07352,0-10.28818,8.82684-10.28818,15.47107
	c0,6.65175,1.21466,15.59505,10.28818,15.59505c9.06601,0,10.27313-8.9433,10.27313-15.59505
	C478.90454,65.57014,477.69739,56.74331,468.63141,56.74331"/>
<path class="st0" d="M67.50616,6.77066C33.96304,6.76979,6.77026,33.96115,6.76939,67.50427
	c-0.00087,33.54311,27.19049,60.7359,60.73362,60.73677c33.54169,0.00087,60.73387-27.18826,60.73677-60.72993
	C128.24109,33.96721,101.05006,6.77313,67.50616,6.77066z"/>
<path class="st1" d="M67.50622,0.99924C30.77557,0.9983,0.99874,30.7736,0.9978,67.50423
	c-0.00095,36.73064,29.77436,66.50748,66.505,66.50843c36.72904,0.00093,66.50521-29.77189,66.50842-66.50093
	C134.01259,30.78026,104.2377,1.00201,67.50622,0.99924"/>
<path class="st0" d="M116.8261,76.12984c-1.83412,0.00056-3.32228-1.48424-3.32588-3.31836v-10.5048
	c-0.03293-1.45866,0.87311-2.77408,2.2477-3.26327c1.73938-0.58846,3.62646,0.34455,4.21492,2.08393
	c0.11598,0.3428,0.1752,0.70225,0.17535,1.06414v10.62C120.13887,74.642,118.65662,76.12707,116.8261,76.12984"/>
<path class="st0" d="M105.66388,87.09008c-0.00819,2.02657-1.6577,3.6628-3.68427,3.65461
	c-0.54073-0.00219-1.07428-0.12385-1.5625-0.35628c-1.26659-0.59086-2.06645-1.87214-2.04111-3.26953V76.17329
	c-0.01509-2.28357-1.87852-4.12254-4.16209-4.10745c-2.26763,0.01498-4.1001,1.85356-4.10752,4.12123v26.2952
	c0.02257,1.72868-1.06023,3.27907-2.691,3.85306c-2.13928,0.76463-4.49336-0.34975-5.258-2.48901
	c-0.13699-0.38326-0.21633-0.7847-0.23545-1.19124l-0.00749-0.18784v-8.00289c-0.10468-2.52773-2.23867-4.492-4.7664-4.38731
	c-0.26611,0.01102-0.53077,0.04523-0.79094,0.10224c-2.13165,0.51159-3.62104,2.43635-3.58131,4.62817v24.30418
	c0.04697,2.53339-1.68507,4.75417-4.15361,5.32565c-2.83054,0.59808-5.60998-1.21169-6.20806-4.04222
	c-0.07369-0.34875-0.11159-0.7041-0.11311-1.06055V94.62339c-0.01446-2.52628-2.07413-4.56253-4.60042-4.54807
	c-2.45818,0.01407-4.46571,1.96844-4.54572,4.42535v7.96658l-0.00627,0.15152c-0.08072,2.25977-1.97806,4.02623-4.23782,3.94551
	c-2.18513-0.07805-3.92332-1.8593-3.94787-4.04568V76.15952c-0.02547-2.28665-1.89982-4.11971-4.18647-4.09423
	c-0.24325,0.00271-0.48578,0.02685-0.72478,0.07214c-1.99526,0.43576-3.40276,2.22319-3.35844,4.265v10.605
	c0.04909,2.01427-1.54401,3.68694-3.55827,3.73602c-2.01427,0.04909-3.68694-1.544-3.73603-3.55827
	c-0.00077-0.0317-0.00113-0.06341-0.00108-0.09512V48.00854c-0.05095-2.01424,1.54062-3.6884,3.55486-3.73935
	c2.01424-0.05094,3.6884,1.54062,3.73934,3.55486c0.00081,0.03185,0.0012,0.06371,0.00117,0.09557v10.68764
	c-0.04433,2.04182,1.36316,3.82927,3.35844,4.26504c2.24682,0.42571,4.41334-1.05059,4.83905-3.29741
	c0.04527-0.23898,0.06941-0.48148,0.07212-0.72469V32.49614c-0.02992-1.56581,0.86591-3.00212,2.28526-3.664
	c2.05708-0.98139,4.52024-0.10938,5.50163,1.94769c0.24068,0.5045,0.37637,1.05264,0.39883,1.61117l0.00627,0.15151V40.509
	c0.08223,2.52499,2.1958,4.50523,4.72079,4.423c2.45692-0.08001,4.41129-2.08755,4.42535-4.54572v-24.7324
	c-0.0349-2.05205,1.16658-3.92412,3.04669-4.74713c2.65852-1.18982,5.77823,0.00079,6.96805,2.65932
	c0.30106,0.67266,0.45779,1.40096,0.46008,2.13791V40.2035c-0.03967,2.19154,1.44981,4.1159,3.58131,4.62692
	c2.4719,0.54087,4.91425-1.02454,5.45512-3.49644c0.0573-0.26187,0.09151-0.52827,0.10223-0.79613v-7.99537l0.00749-0.18782
	c0.10673-2.26932,2.03289-4.02244,4.30221-3.91571c0.40654,0.01912,0.80799,0.09846,1.19124,0.23545
	c1.63054,0.57428,2.71321,2.12448,2.691,3.85305v26.28769c0.004,2.28362,1.85847,4.13161,4.14209,4.12762
	c2.26966-0.00397,4.11187-1.83671,4.12753-4.10632V47.89083c-0.02534-1.39739,0.77452-2.67867,2.04111-3.26953
	c1.8298-0.87114,4.01935-0.09399,4.89049,1.73582c0.23244,0.48822,0.3541,1.02179,0.35628,1.56252V87.09008z"/>
<path class="st0" d="M21.56144,72.81123c-0.00071,1.8345-1.48843,3.32108-3.32293,3.32037
	c-0.20304-0.00008-0.40566-0.01878-0.60529-0.05585c-1.60754-0.34486-2.74396-1.78233-2.70855-3.42606V62.35276
	c-0.03541-1.64372,1.10101-3.08118,2.70853-3.42605c1.80407-0.33465,3.53785,0.85656,3.8725,2.66064
	c0.03695,0.19917,0.0556,0.40131,0.05572,0.60387L21.56144,72.81123z"/>
<path class="st1" d="M67.50622,61.83484c-3.13153-0.00147-5.67134,2.53594-5.67281,5.66747s2.53595,5.67133,5.66748,5.67281
	c3.13068,0.00147,5.67012-2.53461,5.67281-5.66528C73.17199,64.37926,70.63679,61.8407,67.50622,61.83484"/>
<path d="M547.79968,41.3523c9.45312,0.23242,16.57257,2.88606,21.3584,7.96094c4.78516,5.0752,7.17773,12.77473,7.17773,23.09863
	c0,10.32422-2.39258,18.02345-7.17773,23.09766c-4.78467,5.07617-11.90411,7.72981-21.3584,7.96094h-21.48877V41.3523H547.79968z
	 M544.84167,98.42457c3.8913,0.07447,7.77319-0.40895,11.52734-1.43555c2.99585-0.82794,5.73413-2.39896,7.96094-4.56738
	c2.19128-2.2675,3.77686-5.04983,4.61084-8.09082c1.06036-3.88183,1.55847-7.89568,1.479-11.91895
	c0.07947-4.02327-0.41864-8.03712-1.479-11.91895c-0.83374-3.04138-2.41937-5.82407-4.61084-8.0918
	c-2.22681-2.16842-4.96509-3.73944-7.96094-4.56738c-3.75415-1.02659-7.63605-1.51001-11.52734-1.43553h-12.61475v52.02636
	H544.84167z"/>
<path d="M616.87732,41.3523V86.157c0.04871,2.78545-0.27307,5.56501-0.95697,8.26563c-0.54034,2.1394-1.60126,4.112-3.08838,5.74219
	c-1.54028,1.58212-3.45563,2.74915-5.56787,3.39258c-2.75104,0.81779-5.61322,1.19937-8.48242,1.13086
	c-3.00134,0.11513-5.98615-0.49663-8.7002-1.7832c-2.14404-1.08304-3.97211-2.70135-5.30713-4.69824
	c-1.31763-2.04744-2.20551-4.34122-2.60986-6.74219c-0.46979-2.61268-0.70264-5.26244-0.6958-7.917h5.91602
	c0.05713,1.33496,0.14404,2.93002,0.26074,4.78516c0.10846,1.82428,0.5202,3.61773,1.21826,5.30664
	c0.72803,1.72405,1.91705,3.21414,3.43652,4.30664c1.59424,1.18946,3.92871,1.78386,7.00342,1.7832
	c1.95441,0.06085,3.90259-0.24897,5.7417-0.91309c1.45599-0.5675,2.70172-1.57005,3.56738-2.87109
	c0.95129-1.52193,1.57349-3.2261,1.82666-5.00293c0.37708-2.4171,0.5517-4.86147,0.52197-7.30762V41.3523H616.87732z"/>
<path d="M681.17029,41.3523c2.57098-0.03372,5.12952,0.36337,7.56934,1.1748c2.17004,0.7285,4.15802,1.91516,5.8291,3.47949
	c1.64606,1.57158,2.92358,3.48825,3.74072,5.6123c1.74023,4.83617,1.74023,10.1277,0,14.96386
	c-0.81647,2.12414-2.09406,4.04064-3.74072,5.61133c-1.67059,1.565-3.65875,2.75175-5.8291,3.47949
	c-2.43982,0.81142-4.99835,1.20852-7.56934,1.1748h-21.6626v26.62207h-5.91602V41.3523H681.17029z M679.8656,71.8025
	c4.11774,0,7.4527-1.04395,10.00488-3.13184c2.55182-2.08789,3.82782-5.278,3.82812-9.57031
	c0.00006-4.29102-1.276-7.48112-3.82812-9.57031c-2.55267-2.08789-5.88763-3.13184-10.00488-3.13184h-20.35791V71.8025H679.8656z"/>
<path d="M712.40271,58.57887v10.52636h0.17383c1.21613-3.42618,3.4848-6.37988,6.48145-8.43848
	c3.10632-2.01939,6.78821-2.96669,10.4834-2.69727v5.48145c-2.30688-0.14461-4.61853,0.19605-6.78564,1
	c-1.96631,0.74249-3.75824,1.88281-5.26367,3.34961c-1.49176,1.46891-2.66199,3.23176-3.43652,5.17676
	c-0.8291,2.08946-1.24274,4.32056-1.21777,6.56836v23.9248h-5.48102V58.57887H712.40271z"/>
<path d="M761.25281,59.18727c2.55975,1.21584,4.82928,2.96606,6.65576,5.13281c1.83759,2.22025,3.22626,4.77641,4.08887,7.52637
	c1.85614,5.97806,1.85614,12.3784,0,18.35645c-0.86218,2.74984-2.25092,5.30576-4.08887,7.52539
	c-1.81982,2.16277-4.09174,3.90019-6.65576,5.08984c-5.80438,2.49348-12.37823,2.49348-18.18262,0
	c-2.56439-1.18901-4.83649-2.92653-6.65576-5.08984c-1.83905-2.21891-3.22791-4.77505-4.08887-7.52539
	c-1.85614-5.97805-1.85614-12.3784,0-18.35645c0.86139-2.75046,2.25018-5.30683,4.08887-7.52637
	c1.82593-2.16729,4.09558-3.91761,6.65576-5.13281C748.86243,56.6352,755.46057,56.6352,761.25281,59.18727z M745.28845,63.53787
	c-1.93756,1.07199-3.61566,2.55692-4.91553,4.34961c-1.33423,1.8576-2.33514,3.93314-2.95801,6.13379
	c-1.33398,4.57366-1.33398,9.43317,0,14.00684c0.62244,2.20081,1.62341,4.27641,2.95801,6.13379
	c1.29932,1.79318,2.97754,3.27822,4.91553,4.34961c4.31689,2.20443,9.4292,2.20443,13.74609,0
	c1.93768-1.07179,3.61584-2.55676,4.91553-4.34961c1.33386-1.85783,2.33472-3.9333,2.95801-6.13379
	c1.33398-4.57366,1.33398-9.43317,0-14.00684c-0.62366-2.20034-1.62451-4.27574-2.95801-6.13379
	c-1.30017-1.79236-2.97827-3.27722-4.91553-4.34961C754.71765,61.33344,749.60535,61.33344,745.28845,63.53787z"/>
</svg>
